<?xml version="1.0" standalone="no"?>
<!DOCTYPE svg PUBLIC "-//W3C//DTD SVG 20010904//EN"
 "http://www.w3.org/TR/2001/REC-SVG-20010904/DTD/svg10.dtd">
<svg version="1.0" xmlns="http://www.w3.org/2000/svg"
 width="448.000000pt" height="448.000000pt" viewBox="0 0 448.000000 448.000000"
 preserveAspectRatio="xMidYMid meet">
<metadata>
Created by potrace 1.14, written by Peter Selinger 2001-2017
</metadata>
<g transform="translate(0.000000,448.000000) scale(0.100000,-0.100000)"
fill="#000000" stroke="none">
<path d="M0 2240 l0 -2240 2240 0 2240 0 0 2240 0 2240 -2240 0 -2240 0 0
-2240z m1255 1184 c192 -46 310 -160 360 -349 21 -76 21 -280 0 -805 -8 -212
-15 -394 -14 -405 0 -11 11 27 25 85 122 539 209 849 305 1097 87 223 186 316
339 317 36 0 82 -6 104 -13 49 -17 111 -73 139 -125 22 -41 22 -41 21 -696
l-2 -655 60 230 c132 515 263 938 325 1057 72 138 156 201 268 202 106 0 182
-42 228 -128 21 -41 22 -46 29 -821 8 -908 8 -908 33 -959 29 -61 66 -78 150
-71 136 11 165 1 165 -61 0 -81 -105 -138 -255 -138 -107 0 -162 21 -225 84
-57 57 -89 130 -100 232 -6 46 -10 423 -10 841 0 744 0 757 -20 777 -24 24
-29 24 -58 4 -65 -45 -149 -307 -411 -1286 -72 -269 -139 -505 -150 -527 -22
-41 -68 -86 -102 -96 -32 -11 -84 3 -107 28 -48 51 -47 28 -52 977 -3 492 -7
896 -8 897 -27 27 -70 20 -100 -16 -23 -28 -79 -154 -105 -236 -14 -44 -111
-406 -217 -805 -204 -773 -213 -798 -280 -832 -79 -40 -155 -14 -191 66 -18
39 -19 84 -19 851 0 875 -1 878 -54 969 -50 86 -133 128 -256 129 -132 1 -248
-50 -317 -141 -46 -60 -56 -109 -50 -227 9 -162 74 -316 203 -481 72 -93 77
-118 29 -150 -35 -23 -122 -13 -179 20 -109 64 -218 227 -266 396 -30 105 -37
265 -16 354 75 318 416 497 781 410z"/>
</g>
</svg>
